<?xml version="1.0" encoding="utf-8"?>
<!-- Generator: Adobe Illustrator 16.0.4, SVG Export Plug-In . SVG Version: 6.00 Build 0)  -->
<!DOCTYPE svg PUBLIC "-//W3C//DTD SVG 1.1//EN" "http://www.w3.org/Graphics/SVG/1.1/DTD/svg11.dtd">
<svg version="1.1" id="Layer_1" xmlns="http://www.w3.org/2000/svg" xmlns:xlink="http://www.w3.org/1999/xlink" x="0px" y="0px"
	 width="432.333px" height="73px" viewBox="0 0 432.333 73" enable-background="new 0 0 432.333 73" xml:space="preserve">
<g>
	<g>
		<path fill="#CD9700" d="M378.531,65.612l6.795-17.972l1.184,1.021c4.172,3.403,9.828,6.298,15.172,6.41
			c4.773,0.111,7.109-1.16,6.473-5.2c-0.473-3.02-3.881-3.55-6.006-3.97l-4.674-0.933c-9.088-1.697-16.732-7.306-16.732-17.922
			c0-16.057,13.846-25.062,27.768-25.062c7.318,0,14.023,1.862,20.309,5.946l-5.9,15.926c-3.236-2.331-8.133-5.61-14.336-5.836
			c-2.039-0.077-6.703,0.992-5.211,5.731c0.646,2.016,3.539,2.863,5.314,3.296l5.27,1.271c9.854,2.293,16.982,7.9,16.982,19.365
			c0,16.141-13.928,24.131-27.768,24.131C395.099,71.813,385.748,69.516,378.531,65.612"/>
		<rect x="350.216" y="3.085" fill="#CD9700" width="23.305" height="67.716"/>
		<polygon fill="#CD9700" points="323.488,3.085 347.779,3.085 322.974,70.801 303.269,70.801 278.547,3.085 302.751,3.085 
			313.123,43.944 		"/>
		<path fill="#CD9700" d="M221.035,70.801h24.633l1.87-8.505h17.583l2.333,8.505h24.641L269.027,3.085h-25.838L221.035,70.801z
			 M256.369,22.63L256.369,22.63c0.433,2.882,4.675,23.606,4.675,23.606h-9.317L256.369,22.63z"/>
		<path fill="#CD9700" d="M183.992,51.356h1.595c7.816,0,13.612-4.689,13.612-13.524c0-9.515-5.139-14.823-13.721-14.823h-1.486
			V51.356z M160.544,3.085h23.873c21.667,0,38.224,9.946,38.224,34.833c0,20.051-13.5,32.883-32.446,32.883l-29.65-0.037V3.085z"/>
		<path fill="#CD9700" d="M146.36,5.209l1.264,11.108c0.298,2.64,1.8,8.969-0.052,8.122c-1.168-0.523-2.126-3.395-3.081-5.938
			c-0.482-1.295-2.793-7.41-3.396-7.861c-2.917-2.184-10.195-4.643-15.117-4.666c-14.935-0.056-24.811,10.957-24.811,30.499
			c0,14.015,6.713,30.832,23.786,30.832c6.118,0,17.836-1.926,21.026-10.629c1.439-3.939,2.761-7.438,3.716-6.378
			c0.706,0.779-0.214,3.931-0.639,5.629c-2.013,8.07-2.122,10.513-2.76,10.828c-7.714,3.869-17.604,5.146-26.266,5.146
			c-27.529,0-37.041-16.06-37.041-32.114c0-27.864,17.119-39.397,43.662-38.397C133.357,1.641,140.071,2.835,146.36,5.209"/>
		<path fill="#CD9700" d="M65.062,6.441l-4.405-1.536c-1.485-1.332,0.318-1.701,0.318-1.701s6.371,1.179,22.249-0.163
			c0,0,1.378,0.272,0.421,1.39L78.443,6.66c-3.396,1.482-3.396,0.633-3.396,4.35L75.02,45.519c0,26.987-27.458,26.382-32.81,26.382
			c-2.544,0-27.525,0-27.525-21.668V13.706c0-6.371,0.68-6.2-1.439-6.948L6.874,4.369c0,0-1.073-1.528,0.845-1.431
			c5.205,0.266,12.746,1.382,30.269,0.103c0,0,1.538,0.375,0.527,1.489l-5.095,1.489c-4.035,1.807-3.501,0.423-3.609,4.567
			l0.125,36.018c0,8.833,4.546,19.766,18.645,19.766c19.46,0,19.641-16.831,19.641-20.57l0.036-35.684
			C68.464,6.758,68.04,7.715,65.062,6.441"/>
	</g>
</g>
</svg>
